<svg xmlns="http://www.w3.org/2000/svg" viewBox="0 0 64 64">
  <rect width="64" height="64" rx="10" fill="#0a0a0a"/>
  <!-- Row 0: top of head -->
  <rect x="14" y="2"  width="6" height="6" fill="#00ff88"/>
  <rect x="20" y="2"  width="6" height="6" fill="#00ff88"/>
  <rect x="26" y="2"  width="6" height="6" fill="#00ff88"/>
  <rect x="32" y="2"  width="6" height="6" fill="#00ff88"/>
  <rect x="38" y="2"  width="6" height="6" fill="#00ff88"/>
  <rect x="44" y="2"  width="6" height="6" fill="#00ff88"/>
  <!-- Row 1 -->
  <rect x="8"  y="8"  width="6" height="6" fill="#00ff88"/>
  <rect x="14" y="8"  width="6" height="6" fill="#00ff88"/>
  <rect x="20" y="8"  width="6" height="6" fill="#00ff88"/>
  <rect x="26" y="8"  width="6" height="6" fill="#00ff88"/>
  <rect x="32" y="8"  width="6" height="6" fill="#00ff88"/>
  <rect x="38" y="8"  width="6" height="6" fill="#00ff88"/>
  <rect x="44" y="8"  width="6" height="6" fill="#00ff88"/>
  <rect x="50" y="8"  width="6" height="6" fill="#00ff88"/>
  <!-- Row 2: eyes -->
  <rect x="2"  y="14" width="6" height="6" fill="#00ff88"/>
  <rect x="8"  y="14" width="6" height="6" fill="#00ff88"/>
  <rect x="26" y="14" width="6" height="6" fill="#00ff88"/>
  <rect x="32" y="14" width="6" height="6" fill="#00ff88"/>
  <rect x="50" y="14" width="6" height="6" fill="#00ff88"/>
  <rect x="56" y="14" width="6" height="6" fill="#00ff88"/>
  <!-- Row 3: eyes -->
  <rect x="2"  y="20" width="6" height="6" fill="#00ff88"/>
  <rect x="8"  y="20" width="6" height="6" fill="#00ff88"/>
  <rect x="26" y="20" width="6" height="6" fill="#00ff88"/>
  <rect x="32" y="20" width="6" height="6" fill="#00ff88"/>
  <rect x="50" y="20" width="6" height="6" fill="#00ff88"/>
  <rect x="56" y="20" width="6" height="6" fill="#00ff88"/>
  <!-- Row 4: full row -->
  <rect x="2"  y="26" width="6" height="6" fill="#00ff88"/>
  <rect x="8"  y="26" width="6" height="6" fill="#00ff88"/>
  <rect x="14" y="26" width="6" height="6" fill="#00ff88"/>
  <rect x="20" y="26" width="6" height="6" fill="#00ff88"/>
  <rect x="26" y="26" width="6" height="6" fill="#00ff88"/>
  <rect x="32" y="26" width="6" height="6" fill="#00ff88"/>
  <rect x="38" y="26" width="6" height="6" fill="#00ff88"/>
  <rect x="44" y="26" width="6" height="6" fill="#00ff88"/>
  <rect x="50" y="26" width="6" height="6" fill="#00ff88"/>
  <rect x="56" y="26" width="6" height="6" fill="#00ff88"/>
  <!-- Row 5: smile top (gaps at cols 2 and 7) -->
  <rect x="2"  y="32" width="6" height="6" fill="#00ff88"/>
  <rect x="8"  y="32" width="6" height="6" fill="#00ff88"/>
  <rect x="20" y="32" width="6" height="6" fill="#00ff88"/>
  <rect x="26" y="32" width="6" height="6" fill="#00ff88"/>
  <rect x="32" y="32" width="6" height="6" fill="#00ff88"/>
  <rect x="38" y="32" width="6" height="6" fill="#00ff88"/>
  <rect x="50" y="32" width="6" height="6" fill="#00ff88"/>
  <rect x="56" y="32" width="6" height="6" fill="#00ff88"/>
  <!-- Row 6: open mouth -->
  <rect x="2"  y="38" width="6" height="6" fill="#00ff88"/>
  <rect x="8"  y="38" width="6" height="6" fill="#00ff88"/>
  <rect x="50" y="38" width="6" height="6" fill="#00ff88"/>
  <rect x="56" y="38" width="6" height="6" fill="#00ff88"/>
  <!-- Row 7: bottom of smile -->
  <rect x="8"  y="44" width="6" height="6" fill="#00ff88"/>
  <rect x="14" y="44" width="6" height="6" fill="#00ff88"/>
  <rect x="44" y="44" width="6" height="6" fill="#00ff88"/>
  <rect x="50" y="44" width="6" height="6" fill="#00ff88"/>
  <!-- Row 8 -->
  <rect x="8"  y="50" width="6" height="6" fill="#00ff88"/>
  <rect x="14" y="50" width="6" height="6" fill="#00ff88"/>
  <rect x="20" y="50" width="6" height="6" fill="#00ff88"/>
  <rect x="26" y="50" width="6" height="6" fill="#00ff88"/>
  <rect x="32" y="50" width="6" height="6" fill="#00ff88"/>
  <rect x="38" y="50" width="6" height="6" fill="#00ff88"/>
  <rect x="44" y="50" width="6" height="6" fill="#00ff88"/>
  <rect x="50" y="50" width="6" height="6" fill="#00ff88"/>
  <!-- Row 9: bottom of head -->
  <rect x="14" y="56" width="6" height="6" fill="#00ff88"/>
  <rect x="20" y="56" width="6" height="6" fill="#00ff88"/>
  <rect x="26" y="56" width="6" height="6" fill="#00ff88"/>
  <rect x="32" y="56" width="6" height="6" fill="#00ff88"/>
  <rect x="38" y="56" width="6" height="6" fill="#00ff88"/>
  <rect x="44" y="56" width="6" height="6" fill="#00ff88"/>
</svg>
